<?xml version="1.0" encoding="UTF-8"?>
<!DOCTYPE svg PUBLIC '-//W3C//DTD SVG 1.1//EN' 'http://www.w3.org/Graphics/SVG/1.1/DTD/svg11.dtd'>
<svg width="270" height="246" xmlns="http://www.w3.org/2000/svg">
 <path d="m0 0h270v246h-270z" fill="#fff"/>
 <path d="m186.24 101.63c-18.97-5.692-38.9-.949-55.964-12.332-26.56-17.08-21.82-52.18-23.716-79.686-56.58 0-102.5 45.87-102.45 102.45 0 56.58 45.87 102.5 102.45 102.45 56.58 0 102.4-45.87 102.45-102.45-8.538-1.897-14.23-7.589-22.768-10.435z" fill="#eae9ea"/>
 <path d="m137.54 112.07c0-56.58-13.87-102.5-30.98-102.45s-30.99 45.87-30.986 102.45c0 13.22.758 25.86 2.137 37.46 24.4-20.78 44.13-46.22 57.304-75.406-13.18 29.18-32.9 54.62-57.304 75.406" fill="#d6d6d6"/>
 <path d="m77.716 149.54c56.58 0 131.5-15.73 131.46-37.224 0-17.8-31.44-32.8-74.363-37.441l-57.094 74.665 57.093-74.665" fill="#e0e0e0"/>
 <path d="m203.69 26.41-96.95 85.2" fill="none" stroke="#231f20" stroke-width=".25"/>
 <path d="m106.74 111.5 111.48-62.94" fill="none" stroke="#231f20" stroke-width=".25"/>
 <circle cx="211.47" cy="37.08" r="13.5" fill="#393939"/>
 <path d="m205.76 39.558c-2.502-1.887-8.072-9.096-2.019-13.515 2.85-2.08 8.434-4.015 14.544-.627 3.934 2.181 7.308 7.192 6.51 12.718-.672 4.639-9.673 8.475-19.035 1.424z" clip-rule="evenodd" fill="#696969" fill-rule="evenodd"/>
 <g fill="none" stroke="#231f20">
  <path d="m3.52 220.51 204.99.15"/>
  <path d="m208.12 218.55v4.33"/>
  <path d="m3.87 218.55v4.33"/>
  <path d="m198.51 55.45 27 .12"/>
  <path d="m225.45 53.49v4.32"/>
  <path d="m198.63 53.49v4.32"/>
 </g>
 <path d="m95.625 242.5v-2.109h2.109v2.109z"/>
 <path d="m117.05 242.5 5.752-15.031h2.162l6.139 15.031h-2.266l-1.74-4.547h-6.318l-1.629 4.547zm4.31-6.172h5.116l-1.565-4.166c-.481-1.264-.842-2.307-1.081-3.131-.194.971-.467 1.932-.819 2.881zm.618-10.008c0-.499.184-.93.55-1.292s.8-.544 1.301-.544c.503 0 .935.184 1.295.551s.541.811.541 1.332c0 .528-.181.975-.543 1.338s-.792.545-1.291.545c-.512 0-.95-.184-1.311-.552-.362-.368-.542-.827-.542-1.378zm.781.011c0 .321.107.591.323.81s.469.328.763.328c.293 0 .548-.109.763-.328s.323-.481.323-.789-.106-.57-.317-.789c-.212-.219-.468-.328-.769-.328-.294 0-.548.107-.763.323-.216.214-.323.472-.323.773z"/>
 <path d="m220.28 63.942v-1.234h3.789v1.234z"/>
 <path transform="translate(-14 -20)" d="m205.58 98.95 2.656-3.76-2.461-3.506h1.521l1.137 1.707c.212.321.38.59.505.804.205-.289.391-.552.557-.786l1.218-1.725h1.479l-2.458 3.486 2.643 3.779h-1.503l-1.504-2.252-.351-.554-1.95 2.806h-1.489z"/>
 <path transform="translate(-14 -20)" d="m184.1 100.95h-1.844v-11.761c-.443.424-1.026.848-1.746 1.271-.721.424-1.368.741-1.941.953v-1.783c1.031-.485 1.933-1.073 2.704-1.764s1.317-1.36 1.639-2.01h1.188z"/>
 <path transform="translate(-14 -20)" d="m189.88 100.95v-2.109h2.109v2.109z"/>
 <path transform="translate(-14 -20)" d="m194.8 87.888v-1.781h9.719v1.441c-.955 1.02-1.901 2.374-2.839 4.062s-1.663 3.425-2.174 5.209c-.368 1.258-.604 2.635-.706 4.132h-1.891c.021-1.183.252-2.61.693-4.286.442-1.674 1.077-3.289 1.903-4.844.826-1.556 1.706-2.866 2.638-3.933z"/>
 <path transform="translate(-14 -20)" d="m220.3 100.95h-1.844v-11.761c-.443.424-1.026.848-1.746 1.271-.721.424-1.368.741-1.941.953v-1.783c1.031-.485 1.933-1.073 2.704-1.764s1.317-1.36 1.639-2.01h1.188z"/>
 <path transform="translate(-14 -20)" d="m225.04 93.533c0-1.776.183-3.207.548-4.293s.909-1.921 1.63-2.506 1.628-.878 2.721-.878c.806 0 1.515.162 2.125.487.61.324 1.113.792 1.507 1.404.394.611.703 1.355.929 2.234.226.878.338 2.062.338 3.551 0 1.764-.181 3.188-.543 4.273s-.903 1.923-1.624 2.511c-.721.589-1.632.883-2.731.883-1.448 0-2.586-.517-3.413-1.55-.992-1.254-1.487-3.294-1.487-6.116zm1.891.003c0 2.472.289 4.114.867 4.928s1.292 1.221 2.141 1.221 1.562-.408 2.141-1.226c.578-.817.867-2.458.867-4.923 0-2.473-.288-4.116-.865-4.929s-1.298-1.22-2.163-1.22c-.849 0-1.527.358-2.037 1.076-.634.916-.951 2.607-.951 5.073z"/>
 <path transform="translate(-14 -20)" d="m241.08 86.325 1.289-.109c.096.628.317 1.101.666 1.416.348.316.77.475 1.266.475.598 0 1.101-.224 1.51-.67.408-.447.613-1.04.613-1.778 0-.702-.196-1.256-.589-1.662-.393-.405-.91-.608-1.553-.608-.399 0-.759.09-1.076.27-.318.18-.568.413-.751.699l-1.156-.148.969-5.148h4.992v1.18h-4.008l-.54 2.69c.603-.418 1.234-.628 1.896-.628.876 0 1.615.304 2.218.91s.903 1.386.903 2.339c0 .908-.265 1.692-.793 2.354-.644.812-1.521 1.218-2.634 1.218-.912 0-1.656-.255-2.233-.766s-.907-1.19-.989-2.034z"/>
 <path transform="translate(-14 -20)" d="m254.1 100.95 5.752-15.031h2.162l6.139 15.031h-2.266l-1.74-4.547h-6.318l-1.629 4.547zm4.31-6.172h5.115l-1.565-4.166c-.481-1.264-.842-2.308-1.081-3.131-.194.972-.467 1.931-.818 2.88zm.617-10.007c0-.499.184-.93.551-1.292.366-.362.8-.544 1.301-.544.503 0 .936.184 1.295.551.361.366.541.811.541 1.332 0 .528-.182.974-.543 1.338-.361.363-.792.545-1.291.545-.512 0-.949-.184-1.311-.552-.362-.369-.543-.829-.543-1.378zm.782.01c0 .321.107.591.322.81.216.219.47.328.764.328.293 0 .548-.109.764-.328.215-.219.322-.481.322-.789s-.105-.57-.317-.789-.468-.328-.769-.328c-.294 0-.548.107-.764.323-.215.215-.322.472-.322.773z"/>
 <path d="m91.508 241.8h-1.844v-11.761c-.443.424-1.026.848-1.746 1.271-.721.424-1.368.741-1.941.953v-1.783c1.031-.485 1.933-1.073 2.704-1.764s1.317-1.36 1.639-2.01h1.188z"/>
 <path d="m106.52 241.8h-1.844v-11.761c-.443.424-1.026.848-1.746 1.271-.721.424-1.368.741-1.941.953v-1.783c1.031-.485 1.933-1.073 2.704-1.764s1.317-1.36 1.639-2.01h1.188z"/>
</svg>
